<svg width="420" height="120" viewBox="0 0 420 120" xmlns="http://www.w3.org/2000/svg" role="img" aria-label="effract">
  <title>effract</title>
  <defs>
    <linearGradient id="v2" x1="0" y1="0" x2="120" y2="0" gradientUnits="userSpaceOnUse">
      <stop offset="0" stop-color="#8b6cff"/>
      <stop offset="1" stop-color="#6d4dff"/>
    </linearGradient>
    <linearGradient id="t2" x1="0" y1="0" x2="120" y2="0" gradientUnits="userSpaceOnUse">
      <stop offset="0" stop-color="#34e0cf"/>
      <stop offset="1" stop-color="#19b6a8"/>
    </linearGradient>
    <linearGradient id="ink" x1="150" y1="0" x2="400" y2="0" gradientUnits="userSpaceOnUse">
      <stop offset="0" stop-color="#7c5cff"/>
      <stop offset="1" stop-color="#29d3c2"/>
    </linearGradient>
    <mask id="weave2">
      <rect width="120" height="120" fill="white"/>
      <circle cx="60" cy="60" r="9.5" fill="black"/>
    </mask>
  </defs>
  <g fill="none" stroke-width="9" stroke-linecap="round">
    <path d="M12,60 C 18,44 30,44 36,60 C 42,76 54,76 60,60 C 66,44 78,44 84,60 C 90,76 102,76 108,60"
          stroke="url(#v2)"/>
    <path d="M12,60 C 18,76 30,76 36,60 C 42,44 54,44 60,60 C 66,76 78,76 84,60 C 90,44 102,44 108,60"
          stroke="url(#t2)" mask="url(#weave2)"/>
  </g>
  <text x="150" y="76" font-family="ui-sans-serif, system-ui, -apple-system, 'Segoe UI', Inter, Roboto, sans-serif"
        font-size="58" font-weight="700" letter-spacing="-2" fill="url(#ink)">effract</text>
</svg>
